<svg width="32" height="30" viewBox="0 0 32 30" fill="none" xmlns="http://www.w3.org/2000/svg">
<path d="M25.3333 8.33337H24.24L21.9733 2.09337C21.7857 1.57885 21.4448 1.13424 20.9965 0.819529C20.5483 0.504817 20.0143 0.335136 19.4667 0.333374H17.3333C16.6 0.333374 16 0.933374 16 1.66671C16 2.40004 16.6 3.00004 17.3333 3.00004H19.4667L21.4133 8.33337H15L14.52 7.00004H14.64C15.3733 7.00004 15.9733 6.40004 15.9733 5.66671C15.9733 4.93337 15.3733 4.33337 14.64 4.33337H10.6667C9.93333 4.33337 9.33333 4.93337 9.33333 5.66671C9.33333 6.40004 9.93333 7.00004 10.6667 7.00004H11.6667L14.0933 13.6667H13.2C12.6133 10.6934 10.12 8.49337 7 8.34671C3.26667 8.16004 0 11.2667 0 15C0 18.7334 2.93333 21.6667 6.66667 21.6667C9.94667 21.6667 12.6 19.4134 13.2 16.3334H18.8C19.3867 19.3067 21.88 21.5067 25 21.6534C28.7333 21.8267 32 18.7334 32 14.9867C32 11.2667 29.0667 8.33337 25.3333 8.33337ZM8 16.3334H10.4267C9.86667 17.9734 8.29333 19.1067 6.4 18.9867C4.41333 18.8667 2.76 17.1867 2.66667 15.1867C2.57333 12.8534 4.36 11 6.66667 11C8.44 11 9.89333 12.1067 10.4267 13.6667H8C7.26667 13.6667 6.66667 14.2667 6.66667 15C6.66667 15.7334 7.26667 16.3334 8 16.3334ZM18.8 13.6667H16.9333L15.96 11H20C19.4133 11.7734 18.9867 12.6667 18.8 13.6667ZM25.1733 19C23.12 18.92 21.3867 17.1734 21.3333 15.1067C21.3067 13.8267 21.8533 12.7067 22.7333 11.96L23.56 14.2267C23.8133 14.92 24.5733 15.28 25.2667 15.0267C25.96 14.7734 26.32 14.0134 26.0667 13.32L25.2267 11.0134L25.24 11C25.7746 10.9818 26.3073 11.0721 26.806 11.2655C27.3047 11.4588 27.7591 11.7513 28.1416 12.1251C28.5242 12.499 28.827 12.9464 29.0319 13.4406C29.2367 13.9347 29.3392 14.4652 29.3333 15C29.3333 17.2934 27.4933 19.08 25.1733 19ZM14.6667 25.6667H9.33333L17.3333 29.6667V27H22.6667L14.6667 23V25.6667Z" fill="url(#paint0_linear_28_217)"/>
<defs>
<linearGradient id="paint0_linear_28_217" x1="16" y1="0.333374" x2="16" y2="29.6667" gradientUnits="userSpaceOnUse">
<stop stop-color="#FFBF00"/>
<stop offset="1" stop-color="#F2A50C"/>
</linearGradient>
</defs>
</svg>
