<svg width="46" height="21" viewBox="0 0 46 21" fill="none" xmlns="http://www.w3.org/2000/svg">
<path fill-rule="evenodd" clip-rule="evenodd" d="M23.0238 0.850098H25.7408C28.5488 0.850098 30.0658 4.1421 28.2368 6.2751L25.5768 9.3751C25.8648 11.2137 26.8358 12.876 28.2958 14.0301C29.7571 15.1848 31.5998 15.7468 33.4568 15.6041C35.3138 15.4614 37.049 14.6245 38.3168 13.2601C39.5835 11.8962 40.2889 10.1045 40.2918 8.2431C40.2915 7.91928 40.3551 7.59859 40.479 7.29939C40.6029 7.0002 40.7845 6.72837 41.0136 6.49949C41.2427 6.27061 41.5146 6.08916 41.8139 5.96555C42.1132 5.84193 42.434 5.77857 42.7578 5.7791C43.4115 5.77936 44.0383 6.03895 44.5009 6.5009C44.9634 6.96284 45.2237 7.58941 45.2248 8.2431C45.2246 10.829 44.4101 13.3492 42.8968 15.4461C41.7637 17.0129 40.2786 18.2917 38.561 19.1796C36.8433 20.0674 34.9412 20.5395 33.0077 20.5578C31.0743 20.5761 29.1636 20.1401 27.4294 19.2849C25.6953 18.4297 24.1862 17.1792 23.0238 15.6341C21.8613 17.1792 20.3523 18.4297 18.6181 19.2849C16.884 20.1401 14.9733 20.5761 13.0398 20.5578C11.1064 20.5395 9.20422 20.0674 7.48658 19.1796C5.76894 18.2917 4.28381 17.0129 3.15078 15.4461C1.63713 13.3493 0.822253 10.8291 0.821778 8.2431C0.821514 7.91919 0.885167 7.59842 1.00909 7.29916C1.13301 6.9999 1.31477 6.72803 1.54394 6.49914C1.77311 6.27024 2.0452 6.08882 2.34461 5.96526C2.64402 5.8417 2.96487 5.77844 3.28878 5.7791C3.94247 5.77936 4.56935 6.03895 5.03186 6.5009C5.49437 6.96284 5.75472 7.58941 5.75578 8.2431C5.75301 10.1075 6.4553 11.9039 7.72178 13.2721C8.66741 14.2935 9.88181 15.0276 11.2257 15.3903C12.5695 15.753 13.9884 15.7295 15.3195 15.3226C16.6506 14.9156 17.8401 14.1417 18.7514 13.0895C19.6627 12.0374 20.259 10.7497 20.4718 9.3741L17.8098 6.2741C15.9818 4.1421 17.4978 0.851097 20.3098 0.851097H23.0238V0.850098Z" fill="#9C9C9C"/>
</svg>
